# xmcd CD database file
#
# Track frame offsets:
#	150
#	14166
#	27558
#	40699
#	52941
#	70682
#	85696
#	100093
#	111944
#	130253
#	138857
#	140089
#	141405
#	143147
#	144738
#	146015
#	147109
#
# Disc length: 2202 seconds
#
# Revision: 0
# Processed by: cddbd v1.5.1PL0 Copyright (c) Steve Scherf et al.
# Submitted via: CDex 1.51
#
DISCID=05089811
DTITLE=Bob Log III - Trike
DYEAR=1999
DGENRE=Blues
TTITLE0=Showtime
TTITLE1=Clap Your Tits
TTITLE2=You Wanna What
TTITLE3=Six Stringer Kicker
TTITLE4=Booby Trap #2
TTITLE5=Daddy Log's Drive in Candy Hoppin' Car Babes (M. Guano Mix)
TTITLE6=Borgnignin
TTITLE7=Log Dirty Down
TTITLE8=Ass Computer
TTITLE9=Bacon
TTITLE10=Claps
TTITLE11=Claps
TTITLE12=Claps
TTITLE13=Claps
TTITLE14=Claps
TTITLE15=Claps
TTITLE16=Booby Trap #1
EXTD=YEAR: 1999
EXTT0=
EXTT1=
EXTT2=
EXTT3=
EXTT4=
EXTT5=
EXTT6=
EXTT7=
EXTT8=
EXTT9=
EXTT10=
EXTT11=
EXTT12=
EXTT13=
EXTT14=
EXTT15=
EXTT16=
PLAYORDER=
